<?xml version="1.0" encoding="utf-8"?>
<!-- Generator: Adobe Illustrator 21.1.0, SVG Export Plug-In . SVG Version: 6.00 Build 0)  -->
<svg version="1.1" id="Livello_1" xmlns="http://www.w3.org/2000/svg" xmlns:xlink="http://www.w3.org/1999/xlink" x="0px" y="0px"
	 viewBox="0 0 157 109.4" style="enable-background:new 0 0 157 109.4;" xml:space="preserve">
<style type="text/css">
	.st0{fill:#032D8C;}
	.st1{fill:#F9E300;}
</style>
<g>
	<rect class="st0" width="157" height="109.4"/>
</g>
<g>
	<g>
		<polygon class="st1" points="78.5,8.8 80.1,13.7 85.1,13.7 81.1,16.6 82.5,21.4 78.5,18.3 74.5,21.4 76.1,16.6 71.9,13.7 
			77.1,13.7 		"/>
	</g>
	<g>
		<polygon class="st1" points="98.4,14.2 100.1,19 105,19 101,21.9 102.6,26.7 98.4,23.6 94.4,26.7 96,21.9 91.9,19 97,19 		"/>
	</g>
	<g>
		<polygon class="st1" points="113.2,29 114.7,33.8 119.8,33.8 115.7,36.7 117.3,41.5 113.2,38.6 109.1,41.5 110.7,36.7 106.7,33.8 
			111.6,33.8 		"/>
	</g>
	<g>
		<polygon class="st1" points="118.6,48.9 120.2,53.7 125.1,53.7 121.1,56.6 122.7,61.4 118.6,58.4 114.5,61.4 116.1,56.6 112,53.7 
			117.1,53.7 		"/>
	</g>
	<g>
		<polygon class="st1" points="113.2,69 114.9,73.8 119.8,73.8 115.8,76.7 117.3,81.6 113.2,78.5 109.2,81.6 110.7,76.7 106.7,73.8 
			111.6,73.8 		"/>
	</g>
	<g>
		<polygon class="st1" points="98.6,83.6 100.2,88.5 105.2,88.5 101.2,91.4 102.6,96.2 98.6,93.1 94.6,96.2 96,91.4 92,88.5 
			97,88.5 		"/>
	</g>
	<g>
		<polygon class="st1" points="78.5,89.3 80.1,94.1 85.1,94.1 81.1,97 82.5,101.8 78.5,98.9 74.5,101.8 76.1,97 71.9,94.1 
			77.1,94.1 		"/>
	</g>
	<g>
		<polygon class="st1" points="58.6,83.6 60.2,88.5 65.1,88.5 61.1,91.4 62.6,96.2 58.6,93.1 54.5,96.2 56,91.4 52,88.5 56.9,88.5 
					"/>
	</g>
	<g>
		<polygon class="st1" points="43.8,69 45.4,73.8 50.3,73.8 46.3,76.7 47.8,81.6 43.8,78.5 39.7,81.6 41.2,76.7 37.2,73.8 
			42.1,73.8 		"/>
	</g>
	<g>
		<polygon class="st1" points="38.4,48.9 39.9,53.7 45,53.7 40.9,56.6 42.5,61.4 38.4,58.4 34.3,61.4 35.9,56.6 31.9,53.7 
			36.8,53.7 		"/>
	</g>
	<g>
		<polygon class="st1" points="43.8,29 45.4,33.8 50.3,33.8 46.3,36.7 47.8,41.5 43.8,38.6 39.7,41.5 41.2,36.7 37.2,33.8 
			42.1,33.8 		"/>
	</g>
	<g>
		<polygon class="st1" points="58.6,14.2 60.2,19 65.1,19 61.1,21.9 62.6,26.7 58.6,23.6 54.5,26.7 56,21.9 52,19 56.9,19 		"/>
	</g>
</g>
</svg>
